<?xml version="1.0" standalone="no"?>
<!DOCTYPE svg PUBLIC "-//W3C//DTD SVG 20010904//EN"
 "http://www.w3.org/TR/2001/REC-SVG-20010904/DTD/svg10.dtd">
<svg version="1.0" xmlns="http://www.w3.org/2000/svg"
 width="1920.000000pt" height="1920.000000pt" viewBox="0 0 1920.000000 1920.000000"
 preserveAspectRatio="xMidYMid meet">
<metadata>
Created by potrace 1.11, written by Peter Selinger 2001-2013
</metadata>
<g transform="translate(0.000000,1920.000000) scale(0.100000,-0.100000)"
fill="#000000" stroke="none">
<path d="M9019 12355 c-4 -3 -60 -12 -125 -20 -156 -20 -212 -35 -356 -97
-356 -153 -516 -256 -817 -527 -295 -267 -452 -641 -421 -1006 4 -49 6 -92 4
-94 -3 -3 -206 -8 -452 -12 -403 -7 -580 -16 -927 -49 -60 -6 -180 -15 -265
-20 -299 -19 -446 -45 -784 -139 -120 -34 -224 -61 -231 -61 -25 0 -252 -74
-325 -105 -41 -18 -156 -70 -255 -115 -99 -45 -223 -101 -275 -125 -52 -23
-117 -54 -145 -68 -27 -14 -63 -29 -80 -33 -79 -18 -377 -160 -510 -242 -27
-17 -75 -40 -105 -52 -106 -42 -215 -126 -347 -268 -141 -153 -230 -261 -270
-330 -14 -26 -46 -77 -69 -113 -59 -90 -94 -167 -94 -209 -1 -33 -1 -34 -16
-15 -34 46 -108 116 -154 145 -63 41 -194 67 -246 50 -39 -13 -96 -67 -120
-113 -20 -37 -39 -173 -31 -218 14 -71 81 -145 141 -156 95 -16 153 -29 163
-36 7 -4 37 -49 67 -100 63 -109 158 -228 247 -313 58 -55 267 -204 286 -204
5 0 19 -7 31 -16 l22 -15 -25 -46 c-21 -41 -23 -49 -10 -72 23 -45 56 -72 121
-101 69 -31 250 -74 355 -85 66 -6 68 -7 137 -74 202 -196 586 -365 1002 -442
l155 -29 46 -51 c90 -100 203 -299 329 -577 87 -191 145 -256 184 -201 14 21
13 24 -17 58 -29 33 -78 128 -181 356 -61 132 -185 330 -267 422 -215 245
-371 373 -633 516 -150 83 -395 168 -421 147 -9 -7 -14 -22 -12 -32 3 -10 1
-18 -4 -18 -5 0 -9 13 -9 28 0 53 61 94 190 127 36 9 84 27 106 40 23 14 44
21 48 18 4 -4 52 -25 109 -48 56 -22 184 -89 285 -149 169 -100 193 -118 323
-242 77 -74 151 -147 163 -162 70 -84 189 -250 219 -304 206 -377 240 -430
377 -583 120 -133 329 -268 560 -359 47 -19 119 -48 160 -66 101 -42 507 -125
745 -150 55 -6 217 -26 360 -45 433 -56 468 -59 832 -51 183 4 394 11 470 17
76 5 255 14 398 18 290 11 621 42 765 73 52 11 133 28 179 38 46 11 144 26
218 35 74 9 167 25 206 36 40 10 140 35 222 54 363 85 481 117 577 154 347
133 554 234 753 367 77 51 151 103 165 116 67 62 139 115 296 216 186 120 264
162 484 259 191 85 277 114 510 174 214 55 459 128 646 195 l121 42 50 -24
c101 -48 143 -135 91 -187 -36 -35 -235 -87 -330 -87 -97 0 -209 -23 -388 -82
-239 -78 -318 -112 -636 -273 -300 -152 -639 -363 -647 -402 -4 -24 9 -43 30
-43 7 0 66 34 131 77 265 173 237 159 337 166 330 23 628 71 918 148 32 8 42
7 56 -5 10 -9 35 -16 55 -16 63 0 244 29 376 60 69 17 157 35 195 40 168 25
381 75 465 111 25 10 81 28 125 38 44 11 136 42 205 69 69 27 141 52 161 56
32 6 164 58 469 186 104 44 333 168 395 214 22 17 69 63 105 103 36 41 84 96
108 122 23 26 42 55 42 64 0 17 21 24 145 51 123 26 443 57 565 54 l115 -3 89
51 c78 44 93 57 119 104 37 64 42 147 12 195 -46 74 -142 155 -318 269 -114
73 -137 85 -232 116 l-80 27 -8 89 c-8 102 -53 257 -102 355 -32 63 -140 209
-155 209 -4 0 -11 11 -14 24 -7 28 -137 151 -266 251 -497 388 -900 604 -1310
702 -58 14 -141 35 -186 48 -44 13 -147 38 -229 55 -82 18 -226 54 -320 80
-217 62 -347 94 -460 114 -82 15 -150 22 -500 58 -84 8 -163 7 -329 -2 -194
-12 -250 -12 -475 3 -357 24 -434 33 -701 82 -129 24 -266 46 -305 50 -127 12
-128 12 -122 54 5 43 -25 291 -47 376 -36 148 -58 202 -103 268 -27 37 -64 93
-83 125 -51 84 -67 103 -213 251 -93 94 -167 158 -252 217 -66 46 -147 105
-180 130 -88 69 -193 115 -515 225 -149 51 -177 57 -350 76 -196 20 -274 26
-281 18z m-844 -990 c118 -25 565 -40 731 -25 111 10 173 11 288 1 122 -9 169
-9 293 5 232 24 321 30 371 24 44 -5 49 -8 79 -59 117 -196 108 -510 -20 -701
-17 -25 -58 -76 -92 -115 -34 -38 -97 -112 -139 -163 -43 -51 -103 -122 -135
-157 -39 -42 -76 -100 -114 -177 -68 -137 -85 -198 -69 -259 11 -40 9 -49 -13
-92 -16 -31 -28 -80 -35 -135 -6 -48 -21 -127 -33 -177 -39 -161 -22 -449 33
-543 18 -29 18 -33 4 -39 -14 -5 -485 5 -491 11 -2 1 8 18 22 36 29 39 31 53
10 70 -24 20 -59 -2 -90 -54 l-27 -46 -101 0 c-131 1 -355 21 -689 62 l-268
33 -14 65 c-8 36 -17 88 -21 115 -3 28 -10 64 -15 80 -5 17 -25 138 -45 270
-19 132 -42 284 -51 339 -13 84 -14 122 -4 260 6 88 15 307 20 486 8 305 10
331 35 425 41 153 82 223 200 340 56 55 117 108 135 118 44 21 148 22 245 2z
m2466 -610 c6 -27 18 -62 25 -77 18 -35 77 -255 105 -388 18 -91 21 -140 22
-365 l1 -260 -36 -120 c-20 -66 -46 -160 -57 -209 -14 -58 -42 -130 -82 -210
-78 -154 -106 -193 -193 -277 l-70 -68 -81 -5 c-44 -3 -202 -7 -352 -10 l-271
-4 -35 77 c-101 223 -144 445 -96 505 24 30 78 36 99 11 21 -25 130 -82 190
-99 128 -37 306 -14 324 41 3 10 22 29 41 42 56 38 138 147 132 174 -3 12 1
31 8 41 8 10 12 23 9 28 -4 5 3 16 15 24 34 24 25 50 -31 95 -100 79 -219 119
-358 119 -47 0 -99 -4 -116 -9 l-31 -9 -7 55 c-4 31 -5 58 -3 60 13 13 157 33
237 33 168 0 255 -38 389 -171 42 -41 88 -83 104 -93 25 -17 28 -17 53 -1 20
13 24 21 18 38 -4 12 -6 45 -5 72 1 28 4 237 7 465 8 617 7 592 21 567 6 -12
17 -44 24 -72z m507 -216 c53 -6 183 -26 287 -45 273 -51 283 -52 575 -75 274
-21 583 -26 728 -11 99 9 117 -1 29 -16 -173 -30 -480 -107 -552 -137 -44 -19
-114 -46 -155 -61 -41 -15 -140 -58 -219 -96 -120 -58 -153 -79 -200 -126 -73
-75 -156 -210 -195 -320 -29 -82 -31 -95 -30 -222 1 -157 20 -270 64 -390 45
-122 44 -121 29 -115 -8 2 -61 12 -119 20 -58 8 -141 21 -185 30 -44 8 -108
14 -142 15 l-63 0 31 48 c16 26 41 84 55 129 l25 82 32 -5 c91 -13 183 -21
194 -17 20 8 26 44 11 59 -8 9 -53 19 -109 25 -52 6 -95 12 -97 14 -5 4 44
164 78 255 62 167 72 210 74 315 1 86 -2 107 -22 146 -33 68 -89 104 -161 103
-31 0 -70 -8 -88 -18 l-33 -17 0 89 c0 85 15 283 25 330 6 25 5 25 133 11z
m-3820 -30 c2 -13 14 -80 28 -148 13 -68 23 -126 20 -128 -2 -2 -11 8 -20 23
-39 59 -94 108 -157 139 -62 32 -171 59 -439 111 -63 12 -61 12 110 14 96 2
229 5 295 9 162 8 159 9 163 -20z m-982 -44 c321 -15 336 -16 545 -59 250 -51
313 -76 376 -153 51 -61 123 -180 123 -203 0 -9 9 -29 20 -43 28 -35 25 -56
-4 -28 -59 56 -142 47 -200 -21 -47 -54 -66 -115 -66 -207 1 -84 8 -109 89
-293 32 -74 57 -147 66 -200 17 -92 35 -150 70 -220 l24 -48 -22 -4 c-87 -19
-243 -58 -257 -66 -15 -8 -299 6 -309 16 -2 2 8 30 22 61 69 156 60 399 -32
796 -15 62 -82 196 -122 242 -52 59 -185 145 -297 192 -159 67 -418 131 -752
187 l-135 23 75 7 c186 16 398 33 426 35 17 0 179 -6 360 -14z m-1035 -73 c30
-11 90 -22 134 -26 84 -7 264 -34 275 -41 4 -2 67 -15 141 -29 195 -37 355
-81 474 -131 111 -46 238 -127 282 -179 46 -54 101 -185 123 -291 11 -55 26
-125 32 -155 7 -30 12 -143 12 -250 l1 -195 -37 -77 -36 -76 -104 25 c-56 13
-118 27 -135 30 -18 3 -33 9 -33 13 0 13 155 79 235 100 90 23 116 41 98 68
-14 22 -82 21 -155 -3 -50 -17 -252 -104 -291 -126 -19 -10 -103 13 -382 106
-71 24 -147 47 -167 50 -21 4 -38 11 -38 15 0 4 24 26 53 48 185 141 448 259
684 306 132 27 125 24 121 54 -4 35 -32 39 -140 17 -130 -26 -261 -72 -406
-141 -218 -103 -392 -231 -392 -287 0 -23 -4 -24 -87 -30 -49 -4 -140 -16
-203 -27 -63 -11 -135 -20 -159 -20 -24 0 -96 -9 -160 -19 -64 -11 -147 -22
-186 -26 -38 -4 -110 -15 -160 -25 -49 -10 -119 -21 -155 -25 -36 -4 -94 -13
-130 -21 -36 -8 -130 -23 -210 -33 -157 -21 -271 -56 -526 -163 -186 -77 -323
-180 -432 -323 -25 -33 -67 -83 -92 -111 -26 -29 -68 -87 -94 -130 -27 -44
-72 -115 -101 -159 -29 -44 -60 -95 -69 -112 -9 -18 -18 -33 -21 -33 -2 0 -75
34 -162 76 -211 102 -260 149 -412 391 l-70 113 13 89 c12 83 19 99 86 213
100 169 147 231 308 404 154 166 200 202 387 299 72 37 180 93 240 125 108 57
197 96 325 143 36 14 130 55 210 92 187 87 456 209 542 246 83 36 229 82 363
114 55 13 163 43 240 65 112 33 269 74 306 79 3 1 30 -7 60 -17z m7958 -23
c86 -11 197 -28 246 -38 l90 -17 -40 -12 c-22 -6 -96 -18 -165 -27 -175 -22
-565 -127 -780 -210 -206 -79 -322 -192 -430 -416 -65 -138 -90 -243 -90 -384
1 -96 15 -214 35 -281 6 -20 0 -22 -102 -37 -59 -9 -151 -21 -203 -26 -52 -6
-120 -13 -151 -16 l-57 -6 -27 58 c-71 152 -106 313 -107 498 -1 73 4 106 26
171 30 92 142 272 196 317 43 36 250 137 400 195 235 90 219 86 565 162 55 12
136 31 180 42 44 10 109 23 144 28 35 5 66 12 69 15 9 8 36 6 201 -16z m683
-148 c62 -16 169 -41 238 -56 352 -73 697 -178 905 -273 219 -100 284 -136
450 -247 323 -217 562 -410 652 -526 106 -138 128 -170 153 -219 41 -82 79
-210 91 -313 10 -83 9 -102 -10 -191 -24 -110 -52 -187 -105 -286 l-35 -66
-73 -18 c-40 -10 -131 -31 -203 -47 -78 -18 -170 -47 -230 -73 -55 -24 -165
-68 -245 -97 -80 -29 -224 -84 -320 -122 -209 -83 -300 -115 -360 -127 -25 -5
-52 -11 -60 -15 -19 -7 -43 33 -93 155 -114 276 -145 345 -203 443 -86 144
-207 299 -286 366 -111 93 -346 188 -538 216 -80 12 -243 46 -310 65 -36 10
-99 25 -140 34 -194 41 -257 58 -386 110 -76 30 -132 57 -124 59 72 22 95 35
98 53 5 36 -17 44 -76 29 -28 -8 -150 -30 -270 -50 -119 -20 -225 -38 -234
-41 -25 -7 -47 75 -60 227 -11 116 -10 132 11 221 32 138 25 134 151 107 164
-33 338 -110 457 -201 57 -44 86 -46 91 -8 3 31 -63 85 -188 153 -109 59 -199
92 -332 123 l-108 26 21 41 c30 58 100 156 141 193 89 85 270 163 538 234 80
21 184 49 231 63 48 14 160 35 250 47 90 11 180 25 199 29 76 19 194 12 312
-18z m-2774 -176 c44 -37 58 -98 44 -195 -10 -70 -19 -102 -66 -227 -19 -49
-26 -51 -26 -4 0 27 5 44 14 47 52 20 75 273 30 319 -41 40 -129 -8 -198 -108
-45 -65 -47 -110 -7 -115 15 -3 30 3 38 14 12 17 13 16 13 -4 0 -13 9 -59 21
-104 19 -72 20 -87 9 -139 -7 -33 -19 -67 -26 -76 -12 -16 -13 -14 -14 17 0
20 -6 44 -14 55 -7 11 -16 38 -20 60 -10 50 -31 91 -63 121 -38 35 -36 118 5
204 66 138 184 199 260 135z m-3792 -150 c49 -53 70 -94 80 -155 l7 -44 -49
41 c-56 46 -123 83 -153 83 -33 0 -54 -42 -46 -92 12 -74 35 -146 50 -151 7
-3 16 -19 20 -36 4 -17 10 -31 15 -31 12 0 20 -28 13 -45 -3 -10 -24 23 -55
91 -63 134 -74 220 -39 299 45 102 89 113 157 40z m2490 -152 c103 11 221 -8
302 -49 92 -45 89 -56 -3 -13 -126 59 -231 51 -412 -33 -34 -15 -64 -28 -67
-28 -3 0 12 16 34 36 21 20 45 51 52 70 9 26 15 31 25 22 8 -7 35 -9 69 -5z
m-2402 -152 c14 -16 25 -60 41 -169 12 -81 21 -149 19 -150 -10 -12 -36 56
-42 110 -7 62 -8 63 -37 63 -29 0 -30 -1 -33 -55 -5 -77 11 -121 64 -177 25
-26 52 -60 59 -75 13 -24 47 -257 38 -267 -8 -10 -58 50 -108 129 -48 77 -105
222 -105 268 0 10 -6 40 -13 68 l-13 51 27 10 c26 10 27 14 34 111 4 55 4 110
0 122 l-7 23 28 -20 c16 -12 38 -30 48 -42z m2689 18 c23 -12 54 -30 70 -41
l27 -19 -52 -30 c-132 -74 -201 -84 -337 -50 -46 12 -97 21 -113 21 -19 0 -37
8 -48 22 -17 22 -17 22 33 45 27 13 51 22 52 21 50 -77 84 -98 157 -98 72 0
148 65 148 128 0 27 10 28 63 1z m739 -266 c18 -23 46 -14 77 24 24 29 33 35
43 25 7 -7 21 -12 31 -12 14 0 18 -5 14 -17 -3 -10 -20 -65 -37 -123 -48 -158
-73 -200 -120 -200 -30 0 -47 20 -68 82 -10 30 -10 60 3 170 21 171 26 189 38
118 5 -30 14 -61 19 -67z m-5087 -222 c71 -19 324 -106 332 -114 6 -6 -64 -33
-134 -51 -137 -36 -229 -48 -418 -56 -206 -9 -405 -34 -561 -70 -49 -12 -141
-32 -205 -44 -260 -52 -651 -264 -793 -431 -79 -91 -132 -169 -197 -282 -84
-148 -137 -226 -209 -305 -56 -62 -67 -69 -133 -88 -125 -37 -158 -53 -210
-100 -50 -46 -51 -47 -49 -103 2 -70 17 -68 -224 -27 -262 44 -356 72 -398
119 -19 20 -18 21 10 62 16 23 44 52 64 64 66 42 215 181 245 229 17 26 55 87
86 135 31 47 81 127 112 176 31 50 68 102 83 115 14 14 47 52 72 85 98 129
260 265 359 301 27 9 95 37 153 62 182 78 266 102 421 122 80 11 174 26 210
34 35 8 93 17 129 21 36 4 96 13 133 21 37 8 125 21 195 29 70 8 162 22 205
30 43 8 100 15 127 15 27 0 81 6 122 14 40 8 123 19 183 25 104 11 220 27 220
29 0 1 32 -7 70 -17z m5027 -146 c0 -5 -5 -11 -11 -13 -6 -2 -11 4 -11 13 0 9
5 15 11 13 6 -2 11 -8 11 -13z m-4278 -74 c155 -35 265 -48 515 -61 102 -5
256 -16 341 -25 85 -8 220 -22 300 -30 80 -8 213 -23 295 -34 493 -65 947 -80
1825 -57 376 9 699 22 775 31 72 8 256 23 409 35 154 11 298 25 321 30 24 5
113 17 200 26 140 14 159 14 166 1 5 -8 20 -18 35 -21 14 -4 94 -34 177 -67
84 -33 193 -69 242 -80 50 -11 149 -33 220 -49 72 -15 166 -38 209 -49 44 -12
94 -21 112 -21 44 0 258 -56 320 -84 102 -47 256 -196 416 -402 141 -182 150
-197 189 -310 34 -101 109 -357 109 -373 0 -15 -431 -154 -677 -217 -293 -75
-350 -94 -548 -181 l-170 -75 -179 -9 c-99 -5 -188 -11 -197 -14 -76 -24
-1165 -41 -2509 -40 -1245 2 -1603 15 -2285 80 -82 8 -225 15 -316 15 -192 0
-410 16 -489 35 -30 8 -80 17 -112 20 -51 6 -57 5 -68 -15 -16 -31 1 -48 58
-55 26 -4 63 -11 84 -16 81 -21 208 -31 493 -39 165 -5 388 -18 495 -29 558
-57 911 -66 2575 -64 1410 1 1578 4 2060 37 110 7 204 11 208 9 5 -3 -18 -22
-50 -42 -143 -88 -222 -141 -312 -207 -94 -70 -97 -71 -171 -77 -41 -4 -142
-18 -225 -33 -219 -38 -298 -43 -468 -34 -265 16 -1502 24 -1712 12 -104 -7
-461 -17 -793 -23 -667 -13 -852 -7 -1133 36 -86 13 -223 31 -305 40 -614 64
-609 63 -784 86 -161 20 -528 77 -710 109 -58 10 -130 22 -160 25 -71 9 -317
57 -505 100 -11 2 -29 19 -39 37 -11 18 -64 93 -118 165 -102 137 -284 321
-403 410 -100 74 -394 240 -493 279 l-93 36 26 31 c49 61 122 173 185 282 162
284 291 404 595 551 191 92 232 106 500 163 249 53 378 70 620 81 220 10 364
35 521 89 138 47 160 50 233 30 35 -10 123 -32 195 -48z m6146 7 c69 -25 139
-52 155 -60 44 -22 115 -43 255 -73 69 -15 175 -40 235 -56 61 -16 174 -40
253 -53 292 -51 466 -120 580 -230 139 -132 287 -357 367 -555 160 -396 219
-491 376 -598 75 -52 73 -68 -11 -90 -25 -6 -65 -18 -90 -27 -153 -53 -261
-78 -385 -87 -219 -16 -378 -30 -412 -36 l-33 -5 15 36 c19 44 19 97 1 139
-18 43 -81 100 -138 127 -26 12 -51 27 -56 33 -6 7 -26 68 -47 137 -101 343
-112 366 -227 513 -46 58 -108 138 -138 177 -81 105 -260 263 -345 304 -85 41
-232 82 -340 95 -44 5 -120 21 -170 34 -49 14 -173 43 -275 65 -130 28 -225
56 -320 94 l-135 53 95 11 c81 10 387 61 555 93 70 13 93 9 235 -41z m-5265
-8 c4 -6 -8 -10 -29 -10 -19 0 -38 5 -41 10 -4 6 8 10 29 10 19 0 38 -4 41
-10z m3778 -9 c54 -10 100 -21 103 -23 7 -7 -68 -16 -246 -28 -286 -19 -260
-20 -260 6 0 16 12 28 43 43 35 18 60 21 152 21 62 -1 153 -9 208 -19z m-9339
-126 c100 -26 178 -100 288 -270 25 -38 75 -116 111 -172 36 -56 100 -138 142
-182 72 -76 86 -85 230 -155 84 -41 156 -79 159 -84 7 -12 -139 -137 -175
-151 -26 -9 -33 -6 -199 93 -141 83 -298 247 -394 410 -80 136 -232 316 -266
316 -10 0 -23 -6 -29 -14 -15 -18 -5 -39 43 -85 20 -19 36 -38 36 -42 0 -8
-75 8 -100 21 -10 5 -28 30 -40 55 -21 44 -21 46 -6 122 12 56 24 85 44 106
47 50 69 54 156 32z m14705 -370 c96 -32 220 -106 356 -210 99 -76 96 -73 128
-116 56 -74 25 -156 -80 -214 -64 -35 -71 -37 -158 -36 -171 2 -500 -36 -671
-78 -67 -17 -168 -48 -226 -70 -57 -22 -133 -47 -169 -56 -35 -9 -134 -49
-219 -90 -85 -40 -166 -77 -180 -80 -14 -4 -70 -31 -125 -60 -55 -29 -123 -63
-151 -75 l-52 -21 -79 60 c-122 91 -157 141 -99 141 38 0 123 29 341 115 116
46 278 108 362 139 83 30 198 75 255 99 57 25 130 50 163 57 33 7 125 28 205
47 198 47 300 60 548 68 192 7 214 9 223 26 17 32 -21 59 -82 59 -45 0 -67 9
-173 67 -74 42 -142 72 -176 79 -30 6 -55 15 -55 20 1 11 25 125 30 142 5 15
-1 16 84 -13z m32 -268 l60 -34 -103 -6 c-57 -4 -122 -10 -146 -13 l-43 -7 26
51 c14 28 33 52 43 54 34 7 105 -12 163 -45z m-660 -559 c-107 -154 -289 -269
-668 -422 -87 -35 -189 -77 -228 -93 -38 -16 -85 -33 -104 -36 -19 -4 -93 -29
-165 -56 -132 -49 -238 -83 -243 -78 -4 4 79 141 90 148 5 4 49 17 96 29 47
12 115 32 151 45 36 13 81 27 100 32 25 6 40 19 54 43 16 30 43 47 175 112 86
42 187 88 226 103 38 14 99 42 135 63 50 28 358 143 403 151 4 0 -5 -18 -22
-41z m-12467 -180 c199 -64 450 -213 599 -357 53 -52 96 -96 94 -98 -7 -7
-165 28 -277 61 -221 65 -413 147 -549 233 -75 48 -151 105 -151 115 0 4 15 8
34 8 40 0 125 36 133 56 7 18 1 19 117 -18z m11036 -385 c0 -5 -22 -43 -49
-85 l-50 -77 -83 -25 c-46 -15 -164 -40 -263 -56 -99 -17 -220 -41 -270 -54
-49 -13 -115 -27 -145 -30 -30 -4 -70 -9 -87 -12 -49 -9 -41 9 26 60 33 25 82
77 110 116 47 64 120 130 144 130 5 0 15 -8 22 -17 11 -15 20 -15 116 6 65 14
170 26 279 32 96 5 182 11 190 13 28 7 60 6 60 -1z m-872 -119 c-18 -26 -53
-63 -77 -83 -24 -20 -55 -48 -70 -62 -14 -14 -55 -35 -91 -47 -63 -21 -414
-100 -535 -121 -68 -12 -347 -42 -351 -38 -2 1 83 46 189 99 369 185 700 293
910 297 l58 1 -33 -46z m-8598 -218 c91 -19 226 -44 300 -55 74 -12 173 -27
220 -35 278 -47 778 -115 990 -135 431 -42 542 -54 672 -76 287 -48 536 -58
1168 -46 311 6 648 17 750 24 204 13 581 12 1470 -4 572 -11 575 -11 675 11
55 12 133 26 173 30 41 5 84 12 95 15 12 4 -23 -23 -78 -60 -158 -105 -354
-199 -704 -337 -89 -34 -276 -84 -502 -133 -90 -19 -191 -44 -224 -55 -83 -26
-141 -37 -296 -55 -129 -15 -233 -36 -349 -69 -101 -29 -579 -75 -705 -69 -44
3 -192 -2 -330 -11 -137 -9 -389 -21 -558 -26 -331 -11 -392 -8 -707 35 -96
13 -263 33 -370 45 -107 11 -222 25 -255 29 -302 45 -514 91 -625 137 -47 20
-128 52 -180 73 -110 43 -164 72 -313 166 -86 54 -122 85 -187 159 -99 113
-160 194 -202 269 -18 31 -54 93 -80 138 -33 56 -42 78 -30 75 9 -3 91 -21
182 -40z"/>
<path d="M9630 10693 c-19 -2 -82 -12 -140 -22 -58 -11 -123 -22 -145 -26 -93
-15 -115 -24 -115 -50 0 -40 22 -42 158 -19 70 13 169 28 220 35 103 14 124
28 96 67 -8 12 -21 21 -27 20 -7 0 -28 -3 -47 -5z"/>
<path d="M8495 10620 c-115 -18 -175 -45 -175 -79 0 -32 26 -46 58 -31 63 29
98 33 311 39 197 5 225 8 235 23 8 14 7 21 -5 33 -12 13 -50 16 -195 20 -98 2
-201 0 -229 -5z"/>
<path d="M9530 10479 c-19 -5 -143 -14 -275 -19 -372 -15 -506 -32 -519 -65
-12 -31 27 -67 54 -50 19 12 181 25 430 36 140 5 284 15 319 22 70 13 94 34
75 65 -13 20 -37 24 -84 11z"/>
<path d="M8137 10110 c-118 -20 -208 -108 -298 -288 -55 -109 -64 -135 -64
-182 0 -55 0 -55 32 -58 29 -3 33 1 52 43 24 54 115 153 181 195 25 16 73 39
105 50 65 23 181 43 195 35 15 -9 -11 -77 -47 -124 -21 -28 -57 -57 -93 -77
-79 -42 -190 -133 -190 -155 0 -10 9 -23 21 -29 23 -13 43 -3 119 61 43 36
142 89 167 89 6 0 21 12 32 26 15 19 21 22 21 11 0 -18 17 -23 93 -30 31 -3
53 -11 62 -23 28 -37 19 -42 -72 -37 -139 8 -230 -21 -351 -112 -65 -49 -78
-79 -47 -105 13 -11 20 -10 43 8 28 23 127 93 149 106 8 4 18 -6 27 -29 11
-26 27 -41 58 -55 83 -38 178 -17 230 51 24 30 26 30 69 19 39 -11 42 -13 22
-21 -25 -9 -31 -47 -11 -67 14 -14 9 -16 -93 -36 -43 -9 -127 -15 -191 -15
-142 0 -163 -7 -178 -62 -21 -76 14 -117 120 -138 98 -20 185 -9 270 34 109
55 127 70 162 138 17 34 44 74 61 88 29 25 30 27 18 57 -10 25 -11 35 -2 46
18 21 63 34 88 25 47 -17 65 -77 84 -276 10 -109 15 -131 26 -122 32 27 6 406
-36 509 -16 41 -16 48 -3 68 12 19 13 31 2 85 -16 77 -46 131 -102 183 -31 28
-57 43 -85 47 -23 4 -62 16 -87 27 -100 43 -410 65 -559 40z"/>
<path d="M4706 7134 c-12 -11 -13 -20 -6 -34 12 -23 18 -24 145 -44 55 -9 143
-23 195 -31 113 -17 386 -44 488 -48 56 -1 75 2 82 13 28 43 -2 56 -144 64
-193 11 -547 55 -677 85 -59 14 -65 14 -83 -5z"/>
<path d="M7768 5283 c7 -3 16 -2 19 1 4 3 -2 6 -13 5 -11 0 -14 -3 -6 -6z"/>
</g>
</svg>
